# xmcd
#
# Track frame offsets:
#	150
#	22695
#	47905
#	67597
#	87365
#	105707
#	124405
#	145155
#	167630
#	188362
#
# Disc length: 2877 seconds
#
# Revision: 1
# Processed by: cddbd v1.5.2PL0 Copyright (c) Steve Scherf et al.
# Submitted via: EZCDAudioConverter 8.0.2.1
#
DISCID=770b3b0a
DTITLE=Phương Lam - Nén Hương Yêu
DYEAR=1995
DGENRE=Contemporary Pop
TTITLE0=Nén Hương Yêu
TTITLE1=Nhật ký của hai đứa mình
TTITLE2=mấy nhịp cầu tre
TTITLE3=Thương hoài ngàn năm
TTITLE4=Đucợ tin em lấy chồng
TTITLE5=Trả lại em
TTITLE6=Mùa chia tay
TTITLE7=Hận Đồ Bàn
TTITLE8=Thương về miền Trung
TTITLE9=Sao chưa thấy hồi âm
EXTD=
EXTT0=
EXTT1=
EXTT2=
EXTT3=
EXTT4=
EXTT5=
EXTT6=
EXTT7=
EXTT8=
EXTT9=
PLAYORDER=
